<svg xmlns="http://www.w3.org/2000/svg" viewBox="0 0 512 512" xmlns:c2pa="http://c2pa.org/manifest"><metadata><c2pa:manifest>AAAWgmp1bWIAAAAeanVtZGMycGEAEQAQgAAAqgA4m3EDYzJwYQAAABZcanVtYgAAAEdqdW1kYzJtYQARABCAAACqADibcQN1cm46YzJwYTowYTZhNTU5MS1hMGE1LTRjNTYtYmFiYy0yN2ExYzMwZTQ0ZDMAAAADl2p1bWIAAAApanVtZGMyYXMAEQAQgAAAqgA4m3EDYzJwYS5hc3NlcnRpb25zAAAAALxqdW1iAAAARGp1bWRjYm9yABEAEIAAAKoAOJtxE2MycGEuaW5ncmVkaWVudC52MwAAAAAYYzJzaD2lXUe8kjTALvUZu1Pta/MAAABwY2JvcqNpZGM6Zm9ybWF0bWltYWdlL3N2Zyt4bWxqaW5zdGFuY2VJRHgseG1wOmlpZDo1ZGYzNjk2Mi0yZGMwLTRmZGEtYjM4Ny1iNDc0NGY4ZTMyMDVscmVsYXRpb25zaGlwaHBhcmVudE9mAAAB4mp1bWIAAABBanVtZGNib3IAEQAQgAAAqgA4m3ETYzJwYS5hY3Rpb25zLnYyAAAAABhjMnNot5qFIPXhxNQJsuAxp2h4DAAAAZljYm9yomdhY3Rpb25zgqJmYWN0aW9ua2MycGEub3BlbmVkanBhcmFtZXRlcnOha2luZ3JlZGllbnRzgaJjdXJseC1zZWxmI2p1bWJmPWMycGEuYXNzZXJ0aW9ucy9jMnBhLmluZ3JlZGllbnQudjNkaGFzaFgg/H6LW7LUlFMGHIYmqvQjIlc9yAT25o7vIqKoAbiCt9qkZmFjdGlvbngdY29tLmFudGhyb3BpYy5jbGF1ZGUucHJvdmlkZWRqcGFyYW1ldGVyc6F4H2NvbS5hbnRocm9waWMub3JpZ2luLWNvbmZpZGVuY2VndW5rbm93bmtkZXNjcmlwdGlvbnhmQ2xhdWRlIHByb3ZpZGVkIHRoaXMgZmlsZSBhdCB0aGUgcmVxdWVzdCBvZiBhIHVzZXIgYW5kIG1heSBoYXZlIGNyZWF0ZWQgb3IgbW9kaWZpZWQgdGhlIGZpbGUgY29udGVudHMubXNvZnR3YXJlQWdlbnShZG5hbWVmQ2xhdWRlcmFsbEFjdGlvbnNJbmNsdWRlZPUAAADIanVtYgAAAEBqdW1kY2JvcgARABCAAACqADibcRNjMnBhLmhhc2guZGF0YQAAAAAYYzJzaCA0Amk4yD69ORKPzPn8D0AAAACAY2JvcqVjYWxnZnNoYTI1NmNwYWRNAAAAAAAAAAAAAAAAAGRoYXNoWCAKR4vfOgrsFN3dxdPiPVvA6R54wZaQm9juKaUpokAi9WRuYW1lbmp1bWJmIG1hbmlmZXN0amV4Y2x1c2lvbnOBomVzdGFydBh9Zmxlbmd0aBkeBAAAAj5qdW1iAAAAJ2p1bWRjMmNsABEAEIAAAKoAOJtxA2MycGEuY2xhaW0udjIAAAACD2Nib3KlY2FsZ2ZzaGEyNTZpc2lnbmF0dXJleE1zZWxmI2p1bWJmPS9jMnBhL3VybjpjMnBhOjBhNmE1NTkxLWEwYTUtNGM1Ni1iYWJjLTI3YTFjMzBlNDRkMy9jMnBhLnNpZ25hdHVyZWppbnN0YW5jZUlEeCx4bXA6aWlkOjhjZGJkMDgxLWJlZDItNDJmNS04NGM4LWI5NDlkZmYzZjE2M3JjcmVhdGVkX2Fzc2VydGlvbnODomN1cmx4LXNlbGYjanVtYmY9YzJwYS5hc3NlcnRpb25zL2MycGEuaW5ncmVkaWVudC52M2RoYXNoWCD8fotbstSUUwYchiaq9CMiVz3IBPbmju8ioqgBuIK32qJjdXJseCpzZWxmI2p1bWJmPWMycGEuYXNzZXJ0aW9ucy9jMnBhLmFjdGlvbnMudjJkaGFzaFggwE+btX0GI7mZRFI6imM8o/UNr1UdzDBtC82XP+UtjCiiY3VybHgpc2VsZiNqdW1iZj1jMnBhLmFzc2VydGlvbnMvYzJwYS5oYXNoLmRhdGFkaGFzaFgguwMHiXke0Bu3F4qLKn0yukSPkpoWH3p1WAk2VAVpgU50Y2xhaW1fZ2VuZXJhdG9yX2luZm+jZG5hbWVvQW50aHJvcGljIEZpbGVzZ3ZlcnNpb25lMS4wLjBrc3BlY1ZlcnNpb25lMi40LjAAABA4anVtYgAAAChqdW1kYzJjcwARABCAAACqADibcQNjMnBhLnNpZ25hdHVyZQAAABAIY2JvctKEWQISogEmGCFZAgowggIGMIIBjaADAgECAhRA5aAK7sI50L64g/oGQgU9Z1UTADAKBggqhkjOPQQDAzBJMRcwFQYDVQQKEw5BbnRocm9waWMsIFBCQzEuMCwGA1UEAxMlQW50aHJvcGljIENvbnRlbnQgQ3JlZGVudGlhbHMgUm9vdCBDQTAeFw0yNjA4MDcxODQzNTZaFw0yODA4MDYxOTQzNTZaMEQxFzAVBgNVBAoTDkFudGhyb3BpYywgUEJDMSkwJwYDVQQDEyBBbnRocm9waWMgQ2xhdWRlIENvbnRlbnQgU2lnbmluZzBZMBMGByqGSM49AgEGCCqGSM49AwEHA0IABJh6CmvLUBgFFNU0vUKlOVtE6djd17L5SuwX0LemFisBM3dkd/3cyjxFA3Qo5S46fX0/ihY0VZ7mfb9KF703t5OjWDBWMA4GA1UdDwEB/wQEAwIHgDAVBgNVHSUEDjAMBgorBgEEAYPoXgIBMAwGA1UdEwEB/wQCMAAwHwYDVR0jBBgwFoAUzlHiBIFOZFsj+OPEz5o+nMHXXMIwCgYIKoZIzj0EAwMDZwAwZAIwMXMdFJ4BetLLVY7ORuE9noqbbAZOZn/aArXyTwFAZfKrPzxF2vPoJNf1+UCdg1XGAjBwX1zd9WGqYkqmL5SFqw1QySjr1zJfpJM9+1rdDwSPLMOPOjKuiXjoU/pUUeG9RwmhY3BhZFkNngAAAAAAAAAAAAAAAAAAAAAAAAAAAAAAAAAAAAAAAAAAAAAAAAAAAAAAAAAAAAAAAAAAAAAAAAAAAAAAAAAAAAAAAAAAAAAAAAAAAAAAAAAAAAAAAAAAAAAAAAAAAAAAAAAAAAAAAAAAAAAAAAAAAAAAAAAAAAAAAAAAAAAAAAAAAAAAAAAAAAAAAAAAAAAAAAAAAAAAAAAAAAAAAAAAAAAAAAAAAAAAAAAAAAAAAAAAAAAAAAAAAAAAAAAAAAAAAAAAAAAAAAAAAAAAAAAAAAAAAAAAAAAAAAAAAAAAAAAAAAAAAAAAAAAAAAAAAAAAAAAAAAAAAAAAAAAAAAAAAAAAAAAAAAAAAAAAAAAAAAAAAAAAAAAAAAAAAAAAAAAAAAAAAAAAAAAAAAAAAAAAAAAAAAAAAAAAAAAAAAAAAAAAAAAAAAAAAAAAAAAAAAAAAAAAAAAAAAAAAAAAAAAAAAAAAAAAAAAAAAAAAAAAAAAAAAAAAAAAAAAAAAAAAAAAAAAAAAAAAAAAAAAAAAAAAAAAAAAAAAAAAAAAAAAAAAAAAAAAAAAAAAAAAAAAAAAAAAAAAAAAAAAAAAAAAAAAAAAAAAAAAAAAAAAAAAAAAAAAAAAAAAAAAAAAAAAAAAAAAAAAAAAAAAAAAAAAAAAAAAAAAAAAAAAAAAAAAAAAAAAAAAAAAAAAAAAAAAAAAAAAAAAAAAAAAAAAAAAAAAAAAAAAAAAAAAAAAAAAAAAAAAAAAAAAAAAAAAAAAAAAAAAAAAAAAAAAAAAAAAAAAAAAAAAAAAAAAAAAAAAAAAAAAAAAAAAAAAAAAAAAAAAAAAAAAAAAAAAAAAAAAAAAAAAAAAAAAAAAAAAAAAAAAAAAAAAAAAAAAAAAAAAAAAAAAAAAAAAAAAAAAAAAAAAAAAAAAAAAAAAAAAAAAAAAAAAAAAAAAAAAAAAAAAAAAAAAAAAAAAAAAAAAAAAAAAAAAAAAAAAAAAAAAAAAAAAAAAAAAAAAAAAAAAAAAAAAAAAAAAAAAAAAAAAAAAAAAAAAAAAAAAAAAAAAAAAAAAAAAAAAAAAAAAAAAAAAAAAAAAAAAAAAAAAAAAAAAAAAAAAAAAAAAAAAAAAAAAAAAAAAAAAAAAAAAAAAAAAAAAAAAAAAAAAAAAAAAAAAAAAAAAAAAAAAAAAAAAAAAAAAAAAAAAAAAAAAAAAAAAAAAAAAAAAAAAAAAAAAAAAAAAAAAAAAAAAAAAAAAAAAAAAAAAAAAAAAAAAAAAAAAAAAAAAAAAAAAAAAAAAAAAAAAAAAAAAAAAAAAAAAAAAAAAAAAAAAAAAAAAAAAAAAAAAAAAAAAAAAAAAAAAAAAAAAAAAAAAAAAAAAAAAAAAAAAAAAAAAAAAAAAAAAAAAAAAAAAAAAAAAAAAAAAAAAAAAAAAAAAAAAAAAAAAAAAAAAAAAAAAAAAAAAAAAAAAAAAAAAAAAAAAAAAAAAAAAAAAAAAAAAAAAAAAAAAAAAAAAAAAAAAAAAAAAAAAAAAAAAAAAAAAAAAAAAAAAAAAAAAAAAAAAAAAAAAAAAAAAAAAAAAAAAAAAAAAAAAAAAAAAAAAAAAAAAAAAAAAAAAAAAAAAAAAAAAAAAAAAAAAAAAAAAAAAAAAAAAAAAAAAAAAAAAAAAAAAAAAAAAAAAAAAAAAAAAAAAAAAAAAAAAAAAAAAAAAAAAAAAAAAAAAAAAAAAAAAAAAAAAAAAAAAAAAAAAAAAAAAAAAAAAAAAAAAAAAAAAAAAAAAAAAAAAAAAAAAAAAAAAAAAAAAAAAAAAAAAAAAAAAAAAAAAAAAAAAAAAAAAAAAAAAAAAAAAAAAAAAAAAAAAAAAAAAAAAAAAAAAAAAAAAAAAAAAAAAAAAAAAAAAAAAAAAAAAAAAAAAAAAAAAAAAAAAAAAAAAAAAAAAAAAAAAAAAAAAAAAAAAAAAAAAAAAAAAAAAAAAAAAAAAAAAAAAAAAAAAAAAAAAAAAAAAAAAAAAAAAAAAAAAAAAAAAAAAAAAAAAAAAAAAAAAAAAAAAAAAAAAAAAAAAAAAAAAAAAAAAAAAAAAAAAAAAAAAAAAAAAAAAAAAAAAAAAAAAAAAAAAAAAAAAAAAAAAAAAAAAAAAAAAAAAAAAAAAAAAAAAAAAAAAAAAAAAAAAAAAAAAAAAAAAAAAAAAAAAAAAAAAAAAAAAAAAAAAAAAAAAAAAAAAAAAAAAAAAAAAAAAAAAAAAAAAAAAAAAAAAAAAAAAAAAAAAAAAAAAAAAAAAAAAAAAAAAAAAAAAAAAAAAAAAAAAAAAAAAAAAAAAAAAAAAAAAAAAAAAAAAAAAAAAAAAAAAAAAAAAAAAAAAAAAAAAAAAAAAAAAAAAAAAAAAAAAAAAAAAAAAAAAAAAAAAAAAAAAAAAAAAAAAAAAAAAAAAAAAAAAAAAAAAAAAAAAAAAAAAAAAAAAAAAAAAAAAAAAAAAAAAAAAAAAAAAAAAAAAAAAAAAAAAAAAAAAAAAAAAAAAAAAAAAAAAAAAAAAAAAAAAAAAAAAAAAAAAAAAAAAAAAAAAAAAAAAAAAAAAAAAAAAAAAAAAAAAAAAAAAAAAAAAAAAAAAAAAAAAAAAAAAAAAAAAAAAAAAAAAAAAAAAAAAAAAAAAAAAAAAAAAAAAAAAAAAAAAAAAAAAAAAAAAAAAAAAAAAAAAAAAAAAAAAAAAAAAAAAAAAAAAAAAAAAAAAAAAAAAAAAAAAAAAAAAAAAAAAAAAAAAAAAAAAAAAAAAAAAAAAAAAAAAAAAAAAAAAAAAAAAAAAAAAAAAAAAAAAAAAAAAAAAAAAAAAAAAAAAAAAAAAAAAAAAAAAAAAAAAAAAAAAAAAAAAAAAAAAAAAAAAAAAAAAAAAAAAAAAAAAAAAAAAAAAAAAAAAAAAAAAAAAAAAAAAAAAAAAAAAAAAAAAAAAAAAAAAAAAAAAAAAAAAAAAAAAAAAAAAAAAAAAAAAAAAAAAAAAAAAAAAAAAAAAAAAAAAAAAAAAAAAAAAAAAAAAAAAAAAAAAAAAAAAAAAAAAAAAAAAAAAAAAAAAAAAAAAAAAAAAAAAAAAAAAAAAAAAAAAAAAAAAAAAAAAAAAAAAAAAAAAAAAAAAAAAAAAAAAAAAAAAAAAAAAAAAAAAAAAAAAAAAAAAAAAAAAAAAAAAAAAAAAAAAAAAAAAAAAAAAAAAAAAAAAAAAAAAAAAAAAAAAAAAAAAAAAAAAAAAAAAAAAAAAAAAAAAAAAAAAAAAAAAAAAAAAAAAAAAAAAAAAAAAAAAAAAAAAAAAAAAAAAAAAAAAAAAAAAAAAAAAAAAAAAAAAAAAAAAAAAAAAAAAAAAAAAAAAAAAAAAAAAAAAAAAAAAAAAAAAAAAAAAAAAAAAAAAAAAAAAAAAAAAAAAAAAAAAAAAAAAAAAAAAAAAAAAAAAAAAAAAAAAAAAAAAAAAAAAAAAAAAAAAAAAAAAAAAAAAAAAAAAAAAAAAAAAAAAAAAAAAAAAAAAAAAAAAAAAAAAAAAAAAAAAAAAAAAAAAAAAAAAAAAAAAAAAAAAAAAAAAAAAAAAAAAAAAAAAAAAAAAAAAAAAAAAAAAAAAAAAAAAAAAAAAAAAAAAAAAAAAAAAAAAAAAAAAAAAAAAAAAAAAAAAAAAAAAAAAAAAAAAAAAAAAAAAAAAAAAAAAAAAAAAAAAAAAAAAAAAAAAAAAAAAAAAAAAAAAAAAAAAAAAAAAAAAAAAAAAAAAAAAAAAAAAAAAAAAAAAAAAAAAAAAAAAAAAAAAAAAAAAAAAAAAAAAAAAAAAAAAAAAAAAAAAAAAAAAAAAAAAAAAAAAAAAAAAAAAAAAAAAAAAAAAAAAAAAAAAAAAAAAAAAAAAAAAAAAAAAAAAAAAAAAAAAAAAAAAAAAAAAAAAAAAAAAAAAAAAAAAAAAAAAAAAAAAAAAAAAAAAAAAAAAAAAAAAAAAAAAAAAAAAAAAAAAAAAAAAAAAAAAAAAAAAAAAAAAAAAAAAAAAAAAAAAAAAAAAAAAAAAAAAAAAAAAAAAAAAAAAAAAAAAAAAAAAAAAAAAAAAAAAAAAAAAAAAAAAAAAAAAAAAAAAAAAAAAAAAAAAAAAAAAAAAAAAAAAAAAAAAAAAAAAAAAAAAAAAAAAAAAAAAAAAAAAAAAAAAAAAAAAAAAAAAAAAAAAAAAAAAAAAAAAAAAAAAAAAAAAAAAAAAAAAAAAAAAAAAAAAAAAAAAAAAAAAAAAAAAAAAAAAAAAAAAAAAAAAAAAAAAAAAAAAAAAAAAAAAAAAAAAAAAAAAAAAAAAAAAAAAAAAAAAAAAAAAAAAAAAAAAAAAAAAAAAAAAAAAAAAAAAAAAAAAAAAAAAAAAAAAAAAAAAAAAAAAAAAAAAAAAAAAAAAAAAAAAAAAAAAAAAAAAAAAAAAAAAAAAAAAAAAAAAAAAAAAAAAAAAAAAAAAAAAAAAAAAAAAAAAAAAAAAAAAAAAAAAAAAAAAAAAAAAAAAAAAAAAAAAAAAAAAAAAAAAAAAAAAAAAAAAAAAAAAAAAAAAAAAAAAAAAAAAAAAAAAAAAAAAAAAAAAAAAAAAAAAAAAAAAAAAAAAAAAAAAAAAAAAAAAAAAAAAAAAAAAAAAAAAAAAAAAAAAAAAAAAAAAAAAAAAAAAAAAAAAAAAAAAAAAAAAAAAAAAPZYQDkp2/oWg4rk5tDo3H8+70c8CzlHO5J4nJw1edZGWkFOT48nTdPpstl9i5GbIqONhG3kp8wfD9GJ+6Tl5XIKpLQ=</c2pa:manifest></metadata>
<defs><linearGradient id="g" x1="0" y1="0" x2="0.3" y2="1">
<stop offset="0" stop-color="#E8A05C"/><stop offset="1" stop-color="#B26B28"/>
</linearGradient></defs>
<rect width="512" height="512" rx="115" fill="url(#g)"/>
<path d="M 241.8 473.9 C 231.4 467.6 228.5 465.6 228.3 464.6 C 227.9 463.1 226.8 451.1 227.0 450.9 C 227.3 450.6 250.3 438.0 253.3 436.5 C 255.2 435.5 256.3 435.3 257.1 435.6 C 258.7 436.2 283.3 449.7 283.9 450.4 C 284.4 450.8 284.3 452.4 283.8 456.8 C 282.7 466.0 282.8 465.9 278.4 468.6 C 263.7 477.6 256.1 482.0 255.6 482.0 C 255.3 481.9 249.1 478.3 241.8 473.9 Z M 180.5 459.1 C 166.3 444.9 156.9 434.6 141.2 415.7 C 118.3 388.0 83.4 341.4 81.5 335.7 C 80.1 331.9 80.5 325.5 82.2 322.4 C 84.9 317.7 112.3 283.4 141.0 248.9 L 151.6 236.2 L 133.7 218.3 L 115.8 200.4 L 114.9 194.6 C 113.0 183.4 108.5 154.9 105.6 135.4 C 102.7 116.7 102.5 115.8 101.2 114.4 C 98.0 110.9 86.1 97.7 84.4 95.8 C 83.4 94.7 81.9 92.0 81.1 89.9 C 79.0 84.7 74.2 71.0 74.4 70.8 C 74.5 70.7 77.9 73.1 82.1 76.0 C 86.2 79.0 89.6 81.3 89.7 81.3 C 89.9 81.1 88.9 77.6 86.2 68.6 C 82.2 55.1 75.4 30.7 75.6 30.5 C 75.9 30.2 86.8 42.8 104.4 63.9 C 107.3 67.5 108.8 68.9 108.9 68.3 C 108.9 67.8 108.4 62.5 107.6 56.4 C 106.8 50.4 106.3 45.3 106.4 45.2 C 106.8 44.7 117.8 63.5 133.2 91.1 C 137.2 98.3 141.4 105.3 142.7 106.8 C 143.9 108.3 147.4 112.4 150.4 115.9 C 153.3 119.3 166.0 134.4 178.4 149.4 C 190.9 164.3 201.7 177.2 202.5 178.1 L 203.9 179.7 L 256.4 179.7 L 308.9 179.7 L 326.8 158.3 C 351.0 129.4 362.9 115.2 368.1 109.1 C 370.5 106.4 373.1 102.9 374.0 101.4 C 376.6 96.6 398.4 58.8 402.0 52.7 C 403.9 49.5 405.8 46.5 406.2 46.1 C 406.9 45.5 406.9 45.6 406.7 47.4 C 405.5 55.5 404.0 68.8 404.1 68.9 C 404.3 69.1 408.4 64.3 424.0 45.4 C 430.3 37.9 435.8 31.3 436.3 30.7 C 437.3 29.8 437.3 29.8 437.0 31.2 C 436.5 33.3 423.5 78.8 423.0 80.2 C 422.8 80.8 422.7 81.4 422.8 81.4 C 422.9 81.4 426.2 79.0 430.2 76.2 C 434.1 73.3 437.4 71.1 437.5 71.2 C 438.0 71.7 431.7 89.1 429.7 93.1 C 429.3 93.8 425.4 98.3 421.1 103.2 C 416.7 108.0 412.4 112.9 411.5 114.0 L 409.7 116.1 L 405.9 140.7 C 403.8 154.2 401.1 171.5 399.8 179.2 C 398.6 186.9 397.4 194.8 397.1 196.8 L 396.5 200.5 L 378.7 218.4 L 360.9 236.2 L 362.8 238.4 C 379.6 257.6 428.6 318.7 430.4 322.8 C 432.2 326.8 432.0 332.5 430.0 336.5 C 428.0 340.4 405.6 372.1 395.0 386.1 C 381.7 403.5 356.5 433.1 340.8 449.7 C 333.3 457.7 320.4 470.3 319.4 470.7 C 318.9 470.8 319.1 469.8 322.9 455.1 C 325.9 443.6 327.8 434.9 333.1 407.4 C 335.0 397.4 337.8 382.5 339.4 374.1 C 341.0 365.8 342.5 358.2 342.8 357.2 C 343.2 355.5 344.2 354.2 363.2 330.8 L 371.1 321.1 L 370.2 316.8 C 368.3 307.6 361.0 280.4 360.3 279.6 C 360.0 279.3 338.3 305.5 320.8 327.2 L 313.6 336.2 L 313.3 362.2 C 313.1 376.6 313.0 395.9 313.0 405.2 L 313.0 422.2 L 309.4 425.6 C 305.7 429.2 300.4 433.5 297.0 435.8 L 294.9 437.1 L 290.3 434.9 C 284.6 432.0 270.7 424.4 266.2 421.5 C 262.3 419.2 261.6 417.9 261.6 413.8 C 261.6 408.5 261.9 408.1 288.5 378.8 C 291.9 375.1 292.2 374.6 292.2 372.7 C 292.2 370.3 291.1 368.7 288.7 367.7 C 286.3 366.7 226.1 366.7 223.8 367.7 C 220.1 369.3 219.0 372.9 221.4 375.9 C 222.1 376.8 228.3 383.8 235.0 391.3 C 241.8 398.8 247.9 405.7 248.7 406.6 C 250.1 408.3 250.1 408.5 250.1 413.3 C 250.1 417.6 250.0 418.5 249.2 419.3 C 247.8 420.9 223.0 434.9 218.9 436.5 C 217.2 437.1 216.6 436.8 211.5 432.8 C 205.7 428.3 201.1 423.9 199.8 421.6 L 198.6 419.6 L 198.5 378.1 L 198.5 336.6 L 195.5 332.4 C 191.7 327.2 171.9 302.4 160.7 288.8 C 154.9 281.9 152.3 279.1 152.0 279.6 C 150.4 282.4 143.5 307.9 142.0 316.7 L 141.1 321.5 L 145.5 326.8 C 147.9 329.8 154.1 337.3 159.2 343.6 C 164.3 349.9 168.8 355.5 169.0 356.0 C 169.9 357.7 174.4 381.5 180.6 417.0 C 184.3 438.0 187.0 450.0 191.9 466.7 C 192.5 468.9 192.8 470.7 192.6 470.7 C 192.4 470.7 186.9 465.5 180.5 459.1 Z" fill="#FDF9F4" fill-rule="evenodd"
      transform="translate(256,256) scale(0.78) translate(-256,-256)"/></svg>